# xmcd CD database file
#
# Track frame offsets:
#	150
#	11835
#	23237
#	33375
#	43105
#	53342
#	63377
#	73810
#	84155
#	93892
#	102727
#	112997
#	123032
#	133365
#	142952
#	153612
#	163937
#	174472
#	185717
#	196065
#	206792
#	216385
#	226460
#	238445
#	249665
#
# Disc length: 3457 seconds
#
# Revision: 0
# Processed by: cddbd v1.5PL3 Copyright (c) Steve Scherf et al.
# Submitted via: CDex 1.50
#
DISCID=700d7f19
DTITLE=Jimmy Bryant - Frettin' Fingers
DYEAR=2003
DGENRE=Country
TTITLE0=Bryant's Boogie
TTITLE1=Red Headed Polka
TTITLE2=Railroadin'
TTITLE3=Stainless Steel
TTITLE4=T-Bone Rag
TTITLE5=Truck Driver's Ride
TTITLE6=Liberty Bell Polka
TTITLE7=Bryant's Shuffle
TTITLE8=Yodeling Guitar
TTITLE9=Georgia Steel Guitar
TTITLE10=Pickin' The Chicken
TTITLE11=Comin' On
TTITLE12=Lover
TTITLE13=Seranade To A Frog
TTITLE14=Bryant's Bounce
TTITLE15=Whistle Stop
TTITLE16=Hometown Polka
TTITLE17=Jammin' With Jimmy
TTITLE18=Two Of A Kind
TTITLE19=Old Joe Clark
TTITLE20=Arkansas Traveler
TTITLE21=Country Capers
TTITLE22=Low Man On A Totem Pole
TTITLE23=Cotton Pickin'
TTITLE24=Sleepwalker's Lullaby
EXTD=YEAR: 2003
EXTT0=
EXTT1=
EXTT2=
EXTT3=
EXTT4=
EXTT5=
EXTT6=
EXTT7=
EXTT8=
EXTT9=
EXTT10=
EXTT11=
EXTT12=
EXTT13=
EXTT14=
EXTT15=
EXTT16=
EXTT17=
EXTT18=
EXTT19=
EXTT20=
EXTT21=
EXTT22=
EXTT23=
EXTT24=
PLAYORDER=
